<?xml version="1.0" encoding="utf-8"?>
<svg width="47" height="41" viewBox="0 0 47 41" fill="none" xmlns="http://www.w3.org/2000/svg">
  <path d="M 15.419 1.5 L 31.643 1.596 C 31.643 1.595 31.643 1.595 31.643 1.595 C 31.622 1.537 31.594 1.51 31.582 1.501 C 31.582 1.501 31.582 1.5 31.581 1.5 L 15.419 1.5 Z M 31.624 1.508 L 35.074 8.333 L 44.389 8.333 C 44.881 8.333 45.5 8.814 45.5 9.68 L 45.5 9.681 L 45.5 38.153 C 45.5 39.019 44.881 39.5 44.389 39.5 L 2.611 39.5 C 2.119 39.5 1.5 39.019 1.5 38.153 L 1.5 9.681 C 1.5 8.814 2.119 8.333 2.611 8.333 L 11.926 8.333 L 12.989 8.333 L 13.341 7.331 L 15.358 1.595 C 14.909 0.921 31.613 1.492 31.624 1.508 Z" stroke="#9B63F8" stroke-width="3"/>
  <path d="M13.5 23.0153C13.5 17.2169 18.2133 12.5 24 12.5C29.7868 12.5 34.5 17.2165 34.5 23.0153C34.5 28.8143 29.7868 33.5311 24 33.5311C18.2132 33.5311 13.5 28.8143 13.5 23.0153Z" stroke="#9B63F8" stroke-width="3"/>
  <path d="M22.6803 17.1377H25.5093V29.641H22.6803V17.1377Z" fill="#9B63F8"/>
  <path d="M18.4369 24.9523V21.8264H29.7528V24.9523H18.4369Z" fill="#9B63F8"/>
</svg>