<svg width="18" height="17" viewBox="0 0 18 17" fill="none" xmlns="http://www.w3.org/2000/svg">
<path d="M6.54011 1.36857H11.0769C11.3715 1.36857 11.6661 1.59922 11.6661 1.94519V2.2335C11.6661 2.52181 11.4305 2.81012 11.0769 2.81012H6.54011C6.24551 2.81012 5.95091 2.57947 5.95091 2.2335V1.94519C6.00983 1.59922 6.24551 1.36857 6.54011 1.36857ZM5.47955 11.3441H6.06875C6.36335 11.3441 6.65795 11.5747 6.65795 11.9207V12.036C6.65795 12.3243 6.42227 12.6126 6.06875 12.6126H5.47955C5.18496 12.6126 4.89036 12.382 4.89036 12.036V11.9207C4.89036 11.6324 5.18496 11.3441 5.47955 11.3441ZM8.54339 11.3441H9.13259C9.42719 11.3441 9.72179 11.5747 9.72179 11.9207V12.036C9.72179 12.3243 9.48611 12.6126 9.13259 12.6126H8.54339C8.24879 12.6126 7.95419 12.382 7.95419 12.036V11.9207C7.95419 11.6324 8.24879 11.3441 8.54339 11.3441ZM11.6072 11.3441H12.1964C12.491 11.3441 12.7856 11.5747 12.7856 11.9207V12.036C12.7856 12.3243 12.5499 12.6126 12.1964 12.6126H11.6072C11.3126 12.6126 11.018 12.382 11.018 12.036V11.9207C11.018 11.6324 11.3126 11.3441 11.6072 11.3441ZM2.41572 2.00285V2.29116C2.41572 2.52181 2.29788 2.75245 2.0622 2.81012C1.70868 2.92544 1.473 3.27141 1.473 3.67504V14.0542C1.473 14.2848 1.59084 14.5155 1.7676 14.6885C1.94436 14.8614 2.18004 14.9768 2.41572 14.9768H15.3192C15.8495 14.9768 16.2619 14.5731 16.2619 14.0542V3.67504C16.2619 3.4444 16.1441 3.21375 15.9673 3.04076C15.9084 2.9831 15.7905 2.86778 15.6727 2.81012C15.437 2.75245 15.3192 2.52181 15.3192 2.29116V2.00285C15.3192 1.82986 15.3781 1.65688 15.5549 1.54156C15.7316 1.42623 15.9084 1.42623 16.0851 1.48389C16.4387 1.59922 16.7333 1.7722 17.0279 2.06051C17.4403 2.46415 17.676 3.04076 17.676 3.67504V14.0542C17.676 15.3804 16.2619 16.4183 15.0246 16.4183H2.41572C1.7676 16.4183 1.1784 16.13 0.707039 15.7264C0.2946 15.2651 0 14.6885 0 14.0542V3.67504C0 2.63713 0.707039 1.7722 1.64976 1.48389C1.82652 1.42623 2.00328 1.42623 2.18004 1.54156C2.29788 1.65688 2.41572 1.82986 2.41572 2.00285ZM8.54339 8.97994H9.13259C9.42719 8.97994 9.72179 9.21058 9.72179 9.55656V9.67188C9.72179 9.96019 9.48611 10.2485 9.13259 10.2485H8.54339C8.24879 10.2485 7.95419 10.0178 7.95419 9.67188V9.55656C7.95419 9.21058 8.24879 8.97994 8.54339 8.97994ZM11.6072 8.97994H12.1964C12.491 8.97994 12.7856 9.21058 12.7856 9.55656V9.67188C12.7856 9.96019 12.5499 10.2485 12.1964 10.2485H11.6072C11.3126 10.2485 11.018 10.0178 11.018 9.67188V9.55656C11.018 9.21058 11.3126 8.97994 11.6072 8.97994ZM5.47955 8.97994H6.06875C6.36335 8.97994 6.65795 9.21058 6.65795 9.55656V9.67188C6.65795 9.96019 6.42227 10.2485 6.06875 10.2485H5.47955C5.18496 10.2485 4.89036 10.0178 4.89036 9.67188V9.55656C4.89036 9.21058 5.18496 8.97994 5.47955 8.97994ZM5.47955 6.55814H6.06875C6.36335 6.55814 6.65795 6.78879 6.65795 7.13476V7.25008C6.65795 7.53839 6.42227 7.8267 6.06875 7.8267H5.47955C5.18496 7.8267 4.89036 7.59605 4.89036 7.25008V7.13476C4.89036 6.84645 5.18496 6.55814 5.47955 6.55814ZM8.54339 6.55814H9.13259C9.42719 6.55814 9.72179 6.78879 9.72179 7.13476V7.25008C9.72179 7.53839 9.48611 7.8267 9.13259 7.8267H8.54339C8.24879 7.8267 7.95419 7.59605 7.95419 7.25008V7.13476C7.95419 6.84645 8.24879 6.55814 8.54339 6.55814ZM11.6072 6.55814H12.1964C12.491 6.55814 12.7856 6.78879 12.7856 7.13476V7.25008C12.7856 7.53839 12.5499 7.8267 12.1964 7.8267H11.6072C11.3126 7.8267 11.018 7.59605 11.018 7.25008V7.13476C11.018 6.84645 11.3126 6.55814 11.6072 6.55814ZM14.1997 0.791951V3.84803C14.1997 4.13634 13.964 4.42465 13.6105 4.42465H13.3159C13.0213 4.42465 12.7267 4.194 12.7267 3.84803V0.791951C12.7267 0.503641 12.9624 0.215332 13.3159 0.215332H13.6105C13.964 0.215332 14.1997 0.44598 14.1997 0.791951ZM4.89036 0.791951V3.84803C4.89036 4.13634 4.65468 4.42465 4.30116 4.42465H4.06548C3.77088 4.42465 3.47628 4.194 3.47628 3.84803V0.791951C3.47628 0.503641 3.71196 0.215332 4.06548 0.215332H4.36008C4.65468 0.215332 4.89036 0.44598 4.89036 0.791951Z" fill="#9B63F8"/>
</svg>
