<svg width="17" height="17" viewBox="0 0 17 17" fill="none" xmlns="http://www.w3.org/2000/svg">
<path d="M14.498 4.86347C14.1624 5.02582 14.022 5.42964 14.1844 5.76506C14.6279 6.68133 14.8527 7.66896 14.8527 8.70159C14.8527 12.4242 11.8241 15.4528 8.10149 15.4528C4.37891 15.4528 1.35025 12.4242 1.35025 8.70159C1.35025 4.97901 4.37891 1.95035 8.10149 1.95035C9.64409 1.95035 11.0932 2.45405 12.2927 3.40691C12.5836 3.63915 13.009 3.59052 13.2412 3.29862C13.4735 3.00688 13.4249 2.58196 13.1328 2.35005C11.7128 1.22149 9.92594 0.600098 8.10149 0.600098C3.63456 0.600098 0 4.23466 0 8.70159C0 13.1685 3.63456 16.8031 8.10149 16.8031C12.5684 16.8031 16.203 13.1685 16.203 8.70159C16.203 7.46375 15.9327 6.2775 15.3996 5.17713C15.2376 4.84089 14.8325 4.70079 14.498 4.86347Z" fill="#9B63F8"/>
<path d="M8.10139 3.30054C7.72872 3.30054 7.42627 3.60299 7.42627 3.97566V8.70153C7.42627 9.0742 7.72872 9.37666 8.10139 9.37666H11.477C11.8497 9.37666 12.1521 9.0742 12.1521 8.70153C12.1521 8.32886 11.8497 8.02641 11.477 8.02641H8.77652V3.97566C8.77652 3.60299 8.47406 3.30054 8.10139 3.30054Z" fill="#9B63F8"/>
</svg>
