<svg width="16" height="21" viewBox="0 0 16 21" fill="none" xmlns="http://www.w3.org/2000/svg">
<path d="M6.38506 19.6568C5.25524 18.2015 3.74882 16.3151 2.5652 14.267C1.32779 12.2189 0.359375 9.95517 0.359375 7.90706C0.359375 5.85895 1.22019 3.97253 2.5652 2.62509C3.91022 1.27765 5.79325 0.415283 7.83768 0.415283C9.8821 0.415283 11.7651 1.27765 13.1101 2.62509C14.4552 3.97253 15.316 5.85895 15.316 7.90706C15.316 9.95517 14.3476 12.2189 13.1101 14.267C11.8727 16.3151 10.4201 18.2015 9.2903 19.6568C9.2365 19.7106 9.18269 19.7645 9.12889 19.8184C9.07509 19.8723 9.02129 19.9262 8.96749 19.9801C8.91369 20.034 8.85989 20.0879 8.80609 20.0879C8.75229 20.1418 8.69849 20.1418 8.64469 20.1957C8.59089 20.2496 8.53709 20.2496 8.42948 20.3035C8.37568 20.3035 8.32188 20.3574 8.21428 20.3574C8.16048 20.3574 8.05288 20.3574 7.99908 20.4113C7.94528 20.4113 7.83768 20.4113 7.78388 20.4113C7.73007 20.4113 7.67627 20.4113 7.56867 20.4113C7.51487 20.4113 7.46107 20.4113 7.35347 20.3574C7.29967 20.3574 7.19207 20.3035 7.13827 20.3035C7.08447 20.3035 6.97686 20.2496 6.92306 20.2496C6.86926 20.1957 6.81546 20.1957 6.76166 20.1418C6.70786 20.0879 6.65406 20.034 6.60026 20.034C6.54646 19.9801 6.49266 19.9262 6.43886 19.8723C6.49266 19.7645 6.43886 19.7106 6.38506 19.6568ZM3.69502 13.6202C4.87864 15.5605 6.33126 17.4469 7.46107 18.8483C7.51487 18.9022 7.51487 18.9022 7.62247 18.9561L7.67627 19.01C7.73007 19.01 7.73007 19.01 7.78388 19.0639H7.83768H7.89148H7.94528H7.99908C8.05288 19.0639 8.10668 19.01 8.16048 19.01L8.21428 18.9561L8.26808 18.9022L8.32188 18.8483C9.4517 17.4469 10.9043 15.5605 12.0879 13.6202C13.2177 11.7338 14.0786 9.68568 14.0786 7.90706C14.0786 6.18233 13.3792 4.6732 12.2493 3.54135C11.1195 2.4095 9.6131 1.70883 7.89148 1.70883C6.16985 1.70883 4.66343 2.4095 3.53362 3.54135C2.4038 4.6732 1.70439 6.23623 1.70439 7.90706C1.70439 9.68568 2.5652 11.6799 3.69502 13.6202ZM7.83768 3.64914C8.37568 3.64914 8.85989 3.75694 9.2903 3.91863C9.7745 4.13422 10.2049 4.40371 10.5277 4.7271C10.9043 5.10438 11.1733 5.48166 11.3347 5.96674C11.4961 6.39792 11.6037 6.9369 11.6037 7.42198C11.6037 7.96096 11.4961 8.44604 11.3347 8.87722C11.1195 9.3623 10.8505 9.79348 10.5277 10.1169C10.1511 10.4941 9.7745 10.7636 9.2903 10.9253C8.85989 11.087 8.32188 11.1948 7.83768 11.1948C7.35347 11.1948 6.81546 11.1948 6.38506 10.9792C5.90085 10.7636 5.47044 10.4941 5.14764 10.1708C4.77103 9.79348 4.50203 9.41619 4.34063 8.93112C4.12543 8.44604 4.01782 7.96096 4.01782 7.47588C4.01782 6.9369 4.12543 6.45182 4.28683 6.02064C4.50203 5.53556 4.77103 5.10438 5.14764 4.7271C5.52424 4.34981 5.90085 4.08032 6.38506 3.91863C6.81546 3.75694 7.35347 3.64914 7.83768 3.64914ZM8.80609 5.15828C8.53709 5.05048 8.21428 4.99658 7.83768 4.99658C7.51487 4.99658 7.19207 5.05048 6.86926 5.15828C6.54646 5.26607 6.27745 5.48166 6.06225 5.69725C5.84705 5.91285 5.63185 6.18233 5.52424 6.50572C5.41664 6.77521 5.36284 7.09859 5.36284 7.47588C5.36284 7.79926 5.41664 8.12265 5.52424 8.44604C5.63185 8.76942 5.84705 9.03891 6.06225 9.2545C6.27745 9.47009 6.54646 9.68568 6.86926 9.79348C7.13827 9.90127 7.46107 9.95517 7.83768 9.95517C8.16048 9.95517 8.48328 9.90127 8.80609 9.79348C9.12889 9.68568 9.3979 9.47009 9.6131 9.2545C9.8283 9.03891 10.0435 8.76942 10.1511 8.44604C10.2587 8.17655 10.3125 7.85316 10.3125 7.47588C10.3125 7.15249 10.2587 6.82911 10.1511 6.50572C10.0435 6.18233 9.8283 5.91285 9.6131 5.69725C9.3979 5.42777 9.12889 5.26607 8.80609 5.15828Z" fill="#9B63F8"/>
</svg>
