<svg width="17" height="15" viewBox="0 0 17 15" fill="none" xmlns="http://www.w3.org/2000/svg">
<path d="M17 1.06464V12.9886C17 13.5741 16.5263 14.0532 15.9474 14.0532H1.05263C0.473684 14.0532 0 13.5741 0 12.9886V1.06464C0 0.479087 0.473684 0 1.05263 0H15.9474C16.5263 0 17 0.479087 17 1.06464ZM14.6316 12.7224L10.5789 6.4943H6.42105L2.36842 12.7224H14.6316ZM1.31579 11.9772L5.26316 5.90875L1.31579 1.49049V11.9772ZM11.7368 5.90875L15.6842 11.9772V1.49049L11.7368 5.90875ZM14.1053 1.3308H2.89474L6.36842 5.21673H10.6316L14.1053 1.3308Z" fill="#9B63F8"/>
</svg>
