<svg width="17" height="17" viewBox="0 0 17 17" fill="none" xmlns="http://www.w3.org/2000/svg">
<path d="M15.8147 14.6201V11.7553C15.8147 11.706 15.8147 11.6566 15.7653 11.6072C15.7159 11.5578 15.7159 11.5578 15.6666 11.5578C14.9751 11.5084 14.333 11.4096 13.7403 11.2614C13.0982 11.1132 12.4561 10.8663 11.8634 10.6193C11.814 10.6193 11.814 10.6193 11.7646 10.6193C11.7152 10.6193 11.7152 10.6193 11.6658 10.6687L11.0731 11.2614C10.8261 11.5084 10.5298 11.6072 10.2334 11.6566C9.93706 11.706 9.59131 11.6072 9.34435 11.459C8.60347 10.9651 7.91198 10.4218 7.31927 9.77966C6.67717 9.13756 6.13386 8.44607 5.63994 7.75458C5.44237 7.50762 5.39298 7.16187 5.44237 6.86552C5.49176 6.56916 5.59055 6.27281 5.83751 6.02585L6.43021 5.43314C6.47961 5.38375 6.47961 5.38375 6.47961 5.33436C6.47961 5.28497 6.47961 5.28497 6.47961 5.23557C6.18325 4.64287 5.98568 4.00077 5.83751 3.35867C5.59055 2.71657 5.44237 2.02508 5.44237 1.38298C5.44237 1.33359 5.44237 1.2842 5.39298 1.2842C5.34358 1.23481 5.29419 1.23481 5.2448 1.23481H2.38005C2.33066 1.23481 2.33066 1.23481 2.33066 1.23481L2.28127 1.2842L2.23188 1.33359V1.38298C2.42944 4.98861 3.9606 8.2485 6.38082 10.6687C8.80104 13.0889 12.0609 14.6201 15.6666 14.8177C15.7159 14.8177 15.7159 14.8177 15.7159 14.8177C15.7159 14.8177 15.7653 14.8177 15.7653 14.7683L15.8147 14.7189C15.8147 14.6695 15.8147 14.6695 15.8147 14.6201ZM17.0001 11.8047V14.6695C17.0001 14.8671 16.9508 15.0646 16.9014 15.2128C16.852 15.361 16.7038 15.5585 16.5556 15.6573C16.4074 15.8055 16.2593 15.9043 16.0617 15.9537C15.8641 16.0031 15.7159 16.0525 15.5184 16.0525C11.6164 15.8549 8.06016 14.1756 5.44237 11.5578C2.87397 8.93999 1.19464 5.38375 0.99707 1.48177C0.99707 1.2842 0.99707 1.08663 1.09585 0.938452C1.14525 0.790275 1.24403 0.592707 1.39221 0.44453C1.49099 0.296353 1.68856 0.197569 1.83674 0.0987844C2.03431 0.0493922 2.18248 0 2.38005 0H5.2448C5.59055 0 5.93629 0.148177 6.18325 0.395138C6.43021 0.642099 6.57839 0.938452 6.62778 1.33359C6.67717 1.8769 6.77596 2.46961 6.92414 3.01292C7.07231 3.60563 7.26988 4.14895 7.51684 4.64287C7.61563 4.88983 7.66502 5.18618 7.61563 5.43314C7.56623 5.6801 7.46745 5.97646 7.22049 6.17403L6.62778 6.76673C6.57839 6.81612 6.57839 6.81612 6.57839 6.86552C6.57839 6.91491 6.57839 6.9643 6.62778 6.9643C7.07231 7.6064 7.56623 8.2485 8.15894 8.79181C8.70225 9.33513 9.34435 9.87844 9.98645 10.323C10.0358 10.3724 10.0852 10.3724 10.0852 10.3724C10.1346 10.3724 10.184 10.3724 10.184 10.323L10.7767 9.73027C10.9743 9.5327 11.2213 9.38452 11.5176 9.33513C11.7646 9.28574 12.0609 9.33513 12.3079 9.43391C12.8512 9.68087 13.3945 9.87844 13.9378 10.0266C14.4811 10.1748 15.0738 10.2736 15.6666 10.323C16.0123 10.3724 16.358 10.5205 16.605 10.7675C16.9014 11.0639 17.0001 11.4096 17.0001 11.8047Z" fill="#9B63F8"/>
</svg>
