<svg width="45" height="46" viewBox="0 0 45 46" fill="none" xmlns="http://www.w3.org/2000/svg">
<circle cx="22.5" cy="23.0555" r="22.5" fill="#FF2998"/>
<path d="M19.664 12.1555H25.616L24.624 26.7795H20.656L19.664 12.1555ZM22.64 34.8115C21.7653 34.8115 21.0293 34.5342 20.432 33.9795C19.856 33.4035 19.568 32.7102 19.568 31.8995C19.568 31.0889 19.856 30.4169 20.432 29.8835C21.008 29.3289 21.744 29.0515 22.64 29.0515C23.536 29.0515 24.272 29.3289 24.848 29.8835C25.424 30.4169 25.712 31.0889 25.712 31.8995C25.712 32.7102 25.4133 33.4035 24.816 33.9795C24.24 34.5342 23.5147 34.8115 22.64 34.8115Z" fill="white"/>
</svg>
